<svg xmlns="http://www.w3.org/2000/svg" viewBox="0 0 800 400" width="800" height="400">
  <defs>
    <linearGradient id="bg1" x1="0" y1="0" x2="1" y2="1">
      <stop offset="0%" stop-color="#18181b"/>
      <stop offset="50%" stop-color="#18181b"/>
      <stop offset="100%" stop-color="#991b1b" stop-opacity="0.3"/>
    </linearGradient>
  </defs>
  <rect width="800" height="400" fill="url(#bg1)"/>
  <line x1="0" y1="0" x2="0" y2="400" stroke="#f87171" stroke-width="0.5" opacity="0.15"/>
       <line x1="0" y1="0" x2="800" y2="0" stroke="#f87171" stroke-width="0.5" opacity="0.15"/><line x1="120" y1="0" x2="120" y2="400" stroke="#f87171" stroke-width="0.5" opacity="0.15"/>
       <line x1="0" y1="60" x2="800" y2="60" stroke="#f87171" stroke-width="0.5" opacity="0.15"/><line x1="240" y1="0" x2="240" y2="400" stroke="#f87171" stroke-width="0.5" opacity="0.15"/>
       <line x1="0" y1="120" x2="800" y2="120" stroke="#f87171" stroke-width="0.5" opacity="0.15"/><line x1="360" y1="0" x2="360" y2="400" stroke="#f87171" stroke-width="0.5" opacity="0.15"/>
       <line x1="0" y1="180" x2="800" y2="180" stroke="#f87171" stroke-width="0.5" opacity="0.15"/><line x1="480" y1="0" x2="480" y2="400" stroke="#f87171" stroke-width="0.5" opacity="0.15"/>
       <line x1="0" y1="240" x2="800" y2="240" stroke="#f87171" stroke-width="0.5" opacity="0.15"/><line x1="600" y1="0" x2="600" y2="400" stroke="#f87171" stroke-width="0.5" opacity="0.15"/>
       <line x1="0" y1="300" x2="800" y2="300" stroke="#f87171" stroke-width="0.5" opacity="0.15"/><line x1="720" y1="0" x2="720" y2="400" stroke="#f87171" stroke-width="0.5" opacity="0.15"/>
       <line x1="0" y1="360" x2="800" y2="360" stroke="#f87171" stroke-width="0.5" opacity="0.15"/><line x1="840" y1="0" x2="840" y2="400" stroke="#f87171" stroke-width="0.5" opacity="0.15"/>
       <line x1="0" y1="420" x2="800" y2="420" stroke="#f87171" stroke-width="0.5" opacity="0.15"/>
</svg>